<svg width="44" height="44" viewBox="0 0 44 44" fill="none" xmlns="http://www.w3.org/2000/svg">
<path d="M9.16699 9.1476C9.16699 7.36714 9.16699 6.4769 9.53822 5.98617C9.86163 5.55866 10.3559 5.29411 10.8911 5.26216C11.5053 5.22548 12.246 5.71929 13.7274 6.70692L33.006 19.5593C34.2301 20.3753 34.8421 20.7834 35.0554 21.2977C35.2419 21.7473 35.2419 22.2526 35.0554 22.7022C34.8421 23.2165 34.2301 23.6246 33.006 24.4406L13.7274 37.293C12.246 38.2806 11.5053 38.7744 10.8911 38.7377C10.3559 38.7058 9.86163 38.4412 9.53822 38.0137C9.16699 37.523 9.16699 36.6328 9.16699 34.8523V9.1476Z" fill="#0F172A"/>
</svg>
