<svg width="20" height="20" viewBox="0 0 20 20" fill="none" xmlns="http://www.w3.org/2000/svg">
<path d="M10.7297 14.8024L14.5097 17.2024C14.9972 17.5099 15.5972 17.0524 15.4547 16.4899L14.3597 12.1849C14.3301 12.0655 14.3348 11.9403 14.3733 11.8235C14.4118 11.7067 14.4825 11.6032 14.5772 11.5249L17.9672 8.69737C18.4097 8.32987 18.1847 7.58737 17.6072 7.54987L13.1822 7.26487C13.0615 7.25785 12.9454 7.2158 12.8482 7.14388C12.7509 7.07196 12.6768 6.97327 12.6347 6.85987L10.9847 2.70487C10.941 2.5848 10.8615 2.48107 10.7568 2.40778C10.6521 2.33448 10.5275 2.29517 10.3997 2.29517C10.2719 2.29517 10.1473 2.33448 10.0426 2.40778C9.93795 2.48107 9.85838 2.5848 9.8147 2.70487L8.1647 6.85987C8.12265 6.97327 8.04848 7.07196 7.95125 7.14388C7.85402 7.2158 7.73794 7.25785 7.6172 7.26487L3.1922 7.54987C2.6147 7.58737 2.3897 8.32987 2.8322 8.69737L6.2222 11.5249C6.31696 11.6032 6.38764 11.7067 6.42612 11.8235C6.46461 11.9403 6.46931 12.0655 6.4397 12.1849L5.4272 16.1749C5.2547 16.8499 5.9747 17.3974 6.5522 17.0299L10.0697 14.8024C10.1683 14.7396 10.2828 14.7063 10.3997 14.7063C10.5166 14.7063 10.6311 14.7396 10.7297 14.8024V14.8024Z" fill="#EDEDED"/>
</svg>
