<svg width="20" height="20" viewBox="0 0 20 20" fill="none" xmlns="http://www.w3.org/2000/svg">
<path d="M10.3298 14.8024L14.1098 17.2024C14.5973 17.5099 15.1973 17.0524 15.0548 16.4899L13.9598 12.1849C13.9302 12.0655 13.9349 11.9403 13.9734 11.8235C14.0119 11.7067 14.0826 11.6032 14.1773 11.5249L17.5673 8.69737C18.0098 8.32987 17.7848 7.58737 17.2073 7.54987L12.7823 7.26487C12.6616 7.25785 12.5455 7.2158 12.4483 7.14388C12.351 7.07196 12.2769 6.97327 12.2348 6.85987L10.5848 2.70487C10.5411 2.5848 10.4616 2.48107 10.3569 2.40778C10.2522 2.33448 10.1276 2.29517 9.9998 2.29517C9.87203 2.29517 9.74736 2.33448 9.6427 2.40778C9.53804 2.48107 9.45848 2.5848 9.4148 2.70487L7.7648 6.85987C7.72275 6.97327 7.64858 7.07196 7.55134 7.14388C7.45411 7.2158 7.33804 7.25785 7.2173 7.26487L2.7923 7.54987C2.2148 7.58737 1.9898 8.32987 2.4323 8.69737L5.8223 11.5249C5.91705 11.6032 5.98774 11.7067 6.02622 11.8235C6.0647 11.9403 6.06941 12.0655 6.0398 12.1849L5.0273 16.1749C4.8548 16.8499 5.5748 17.3974 6.1523 17.0299L9.6698 14.8024C9.76844 14.7396 9.88291 14.7063 9.9998 14.7063C10.1167 14.7063 10.2312 14.7396 10.3298 14.8024V14.8024Z" fill="#FEC84B"/>
</svg>
